#!OML:ASF F:\VICON\USERDATA\INSTALL\rory3\rory3.ASF
:FULLY-SPECIFIED
:DEGREES
19
root 1.00032 18.0157 -7.487980000000036 -4.430659999999998 -5.598700000000007 0.09452550000000248
lfemur -12.398600000000002 -5.153559999999996 -24.837400000000006
ltibia 29.144099999999998
lfoot -8.427670000000003 2.0857800000000006
ltoes -0.16395500000000007
rfemur -13.5365 0.008644059999996845 21.184900000000006
rtibia 73.63209999999994
rfoot 5.6227399999999985 -3.257650000000005
rtoes 7.041800000000009
lowerback -1.0 1.8132299999999983 0.840806999999999
upperback 0.6631379999999996 2.545889999999998 0.47846199999999917
thorax -5.781469999999999 1.2337700000000007 -0.38783799999999913
lowerneck -15.771899999999999 -2.80712 -1.208860000000001
upperneck 22.643300000000004 -3.4024200000000007 -0.8653009999999987
head 9.79117 -1.78266 -0.5408649999999995
lclavicle -1.923860000000002e-14 -7.156249999999985e-15
lhumerus -35.552800000000005 9.443239999999998 79.0333
lradius 22.5839
lwrist 3.8266800000000014
lhand -26.029499999999995 20.642
lfingers 7.12502
lthumb 0.5172569999999954 50.6211
rclavicle -1.923860000000002e-14 -7.156249999999985e-15
rhumerus -24.849800000000002 -19.1006 -80.4064
rradius 25.542
rwrist 6.188299999999997
rhand -17.9047 -1.0
rfingers 7.12502
rthumb 8.36226 -7.14443
20
root 0.9902060000000003 18.0279 -6.959620000000022 -4.508300000000004 -4.8779100000000035 0.5858049999999937
lfemur -10.225699999999998 -5.353249999999991 -25.689599999999988
ltibia 28.174300000000002
lfoot -9.693570000000006 2.184960000000004
ltoes 0.4452240000000067
rfemur -17.485800000000005 -0.6966359999999887 20.530199999999994
rtibia 74.85910000000005
rfoot 2.4808099999999733 -5.227809999999999
rtoes 9.998570000000003
lowerback -1.0 1.4242000000000001 0.36849399999999843
upperback 0.5755900000000007 1.9689500000000004 0.4832070000000016
thorax -5.90396 0.9623280000000005 -0.025133499999998588
lowerneck -15.953 -2.70929 -1.2024399999999993
upperneck 23.156999999999996 -3.2031899999999998 -1.1165100000000017
head 10.003800000000002 -1.7193200000000002 -0.6134069999999989
lclavicle 6.994739999999994e-15 1.5505199999999985e-14
lhumerus -34.346900000000005 8.467189999999995 79.4171
lradius 23.375800000000005
lwrist 3.9451699999999983
lhand -25.803600000000003 23.720500000000005
lfingers 7.12502
lthumb 0.7354490000000014 53.699
rclavicle 6.994739999999994e-15 1.5505199999999985e-14
rhumerus -25.684599999999996 -20.493300000000005 -79.9332
rradius 24.915199999999995
rwrist 6.678459999999998
rhand -15.921000000000003 -1.0
rfingers 7.12502
rthumb 10.2764 -21.042600000000018
21
root 0.624928092870626 17.99724972446421 23.451207070429106 -2.4793008683437465 -2.3125606184241185 0.9350482218393805
lfemur 0.8610506689976063 -3.5909602498388873 -24.745729829790655
ltibia 19.767731116884086
lfoot -3.0405868040901183 -3.5978441218430426
ltoes -7.374773163963242
rfemur -25.428021515119315 0.33620165877887453 19.311477060458355
rtibia 73.7571612346934
rfoot -0.8662030087861226 -0.2760625022224623
rtoes 6.274352883331208
lowerback -1.0 0.029966505011483457 -0.6806428482100202
upperback 0.3458371650237837 -0.13795278276189527 0.9208057353842127
thorax -5.51308261471768 0.08956901096993863 1.89278260666276
lowerneck -16.80092475431642 -2.723382752242002 -1.2745547931647878
upperneck 22.5248668743141 -3.4070251499688036 -0.18621569264751403
head 9.934478592244862 -1.7135685553093498 -0.17699901352549297
lclavicle 4.524972403870602e-16 -7.785662814107933e-16
lhumerus -30.707208534408345 4.64859118262644 79.57377197640041
lradius 26.164434250498932
lwrist 6.745726401279964
lhand -28.47561576696853 19.43659447263185
lfingers nan
lthumb -1.7953708150872887 49.18376584672232
rclavicle 3.6624387074628303e-16 -8.406657488422239e-16
rhumerus -27.974189865081684 -21.235328386640468 -80.68744931613065
rradius 24.559630496761834
rwrist 3.1190633986042915
rhand -17.81974091085786 -1.0
rfingers nan
rthumb 8.581157551269655 -9.39953320747055
22
root 0.3512295852544396 17.981892850956363 18.359359101653837 -2.537841623838968 -2.180323995046064 2.9793369402796426
lfemur 6.418953229541433 -3.76781702378525 -27.502302748223027
ltibia 13.0611807230257
lfoot 2.6110749524883836 -6.849177494612183
ltoes -6.416744908682036
rfemur -27.735831351459783 0.755293846156396 17.102955734989635
rtibia 69.94761063283896
rfoot -2.3360316164927353 0.8092477582443562
rtoes 3.805268699815954
lowerback -1.0 -0.22824643745599343 -2.6905488881192174
upperback 0.2350846397115868 -0.7654134646162166 0.7642058014916179
thorax -5.264127137352703 -0.2476447086442129 2.4573573658873498
lowerneck -16.80453498843131 -2.653255059273305 -1.4584333824509885
upperneck 22.018898512356134 -3.298040055100646 0.2959685719526443
head 9.732812205849847 -1.662818450109661 0.12894466352471995
lclavicle 4.2598666093119903e-16 -7.907201130721096e-16
lhumerus -27.163077586062332 1.0256000802395526 79.39857804999747
lradius 27.833028934944785
lwrist 7.4783056296989034
lhand -28.82893334913305 18.742043228271147
lfingers nan
lthumb -2.100086291412961 48.323281442798276
rclavicle 3.3114279820809484e-16 -8.610869098892553e-16
rhumerus -30.071925745735555 -21.820339558755524 -81.21562555491228
rradius 24.383474014766083
rwrist 1.5177496874465009
rhand -17.90474060177096 -1.0
rfingers nan
rthumb 8.66138075535214 -8.562547696823332
